HIERARCHY
ROOT root
{
	OFFSET	0	13.1	24.9
	CHANNELS 6  Xposition Yposition Zposition Xrotation Yrotation Zrotation
	JOINT spine_1
	{
		OFFSET	0	9.99999	0
		CHANNELS 3  Xrotation Yrotation Zrotation
		JOINT spine_2
		{
			OFFSET	0	112	-10
			CHANNELS 3  Xrotation Yrotation Zrotation
			JOINT spine_3
			{
				OFFSET	0	206.5	19.3
				CHANNELS 3  Xrotation Yrotation Zrotation
				JOINT spine_4
				{
					OFFSET	0	110.4	14.6
					CHANNELS 3  Xrotation Yrotation Zrotation
					JOINT neck_1
					{
						OFFSET	0	71.8	-50.3
						CHANNELS 3  Xrotation Yrotation Zrotation
						JOINT neck_2
						{
							OFFSET	0	86.2	-25.8
							CHANNELS 3  Xrotation Yrotation Zrotation
							JOINT head_ee
							{
								OFFSET	0	179.8	-8.7
								CHANNELS 3  Xrotation Yrotation Zrotation
								End Site
								{
									OFFSET	1	0	0
								}
							}
						}
					}
					JOINT left_clavicle
					{
						OFFSET	-43.2	22.4	-70.8
						CHANNELS 3  Xrotation Yrotation Zrotation
						JOINT left_shoulder
						{
							OFFSET	-93.9	-5.79999	48.7
							CHANNELS 3  Xrotation Yrotation Zrotation
							JOINT left_elbow
							{
								OFFSET	-291.4	-30.8	15.2
								CHANNELS 3  Xrotation Yrotation Zrotation
								JOINT left_lowarm_twist
								{
									OFFSET	-110.7	-3.89999	13.6
									CHANNELS 3  Xrotation Yrotation Zrotation
									JOINT left_hand
									{
										OFFSET	-110.7	-3.89999	13.6
										CHANNELS 3  Xrotation Yrotation Zrotation
										JOINT left_ee
										{
											OFFSET	-80.8	-5.10001	12.1
											CHANNELS 3  Xrotation Yrotation Zrotation
											End Site
											{
												OFFSET	1	0	0
											}
										}
									}
								}
							}
						}
					}
					JOINT right_clavicle
					{
						OFFSET	43.2	22.4	-70.8
						CHANNELS 3  Xrotation Yrotation Zrotation
						JOINT right_shoulder
						{
							OFFSET	93.9	-5.79999	48.7
							CHANNELS 3  Xrotation Yrotation Zrotation
							JOINT right_elbow
							{
								OFFSET	291.4	-30.8	15.2
								CHANNELS 3  Xrotation Yrotation Zrotation
								JOINT right_lowarm_twist
								{
									OFFSET	110.7	-3.89999	13.6
									CHANNELS 3  Xrotation Yrotation Zrotation
									JOINT right_hand
									{
										OFFSET	110.7	-3.89999	13.6
										CHANNELS 3  Xrotation Yrotation Zrotation
										JOINT right_ee
										{
											OFFSET	80.8	-5.10001	12.1
											CHANNELS 3  Xrotation Yrotation Zrotation
											End Site
											{
												OFFSET	1	0	0
											}
										}
									}
								}
							}
						}
					}
				}
			}
		}
	}
	JOINT left_hip
	{
		OFFSET	-82.8	-127.5	0.300001
		CHANNELS 3  Xrotation Yrotation Zrotation
		JOINT left_knee
		{
			OFFSET	-28.2	-396.7	2.2
			CHANNELS 3  Xrotation Yrotation Zrotation
			JOINT left_ankle
			{
				OFFSET	-11.7	-411.3	35.4
				CHANNELS 3  Xrotation Yrotation Zrotation
				JOINT left_toes
				{
					OFFSET	0	-60	-88.6
					CHANNELS 3  Xrotation Yrotation Zrotation
					JOINT left_foot_ee
					{
						OFFSET	-22.5	-16.5	-42.2
						CHANNELS 3  Xrotation Yrotation Zrotation
						End Site
						{
							OFFSET	1	0	0
						}
					}
				}
			}
		}
	}
	JOINT right_hip
	{
		OFFSET	82.8	-127.5	0.300001
		CHANNELS 3  Xrotation Yrotation Zrotation
		JOINT right_knee
		{
			OFFSET	28.2	-396.7	2.2
			CHANNELS 3  Xrotation Yrotation Zrotation
			JOINT right_ankle
			{
				OFFSET	11.7	-411.3	35.4
				CHANNELS 3  Xrotation Yrotation Zrotation
				JOINT right_toes
				{
					OFFSET	0	-60	-88.6
					CHANNELS 3  Xrotation Yrotation Zrotation
					JOINT right_foot_ee
					{
						OFFSET	22.5	-16.5	-42.2
						CHANNELS 3  Xrotation Yrotation Zrotation
						End Site
						{
							OFFSET	1	0	0
						}
					}
				}
			}
		}
	}
}
MOTION
Frames: 14
Frame Time: 0.02
1152.14240461 733.644 -1724.90721577 -15.4180734868 17.7572768509 7.94037390449 5.20795 0.292951 0.414077 5.20801 0.266009 0.431879 5.20995 0.212022 0.460789 5.20976 0.282134 0.421522 -3.17584 6.65498 -7.01772 -2.84815 17.5394 -6.36442 -0.0 0.0 -0.0 -1.95629 10.4587 -2.11925 -20.5017 -19.6861 86.5463 0.23265 -6.57438 0.0133623 -8.35229 -0.368043 1.00141 -2.35504 17.2661 -7.3353 -0.0 0.0 -0.0 11.461 11.6887 -23.0528 60.2688 -67.3953 -26.2218 0.209041 5.91222 -0.0107948 85.2968 4.4621 8.87972 -3.02161 -24.4728 7.45636 0.0 0.0 0.0 34.7608 10.5548 -7.03678 -61.4893 -2.36293 8.68745 31.4071 16.1913 -4.10114 -7.66755 0.0 0.0 -0.0 0.0 -0.0 40.7153 25.0566 -13.7963 -28.2121 -0.108385 -4.2846 5.31944 -4.15806 0.7694 30.4983 -0.0 -0.0 0.0 0.0 0.0 
1145.12236441 731.382 -1736.22778815 -15.3614999237 18.7076062437 8.04553414571 5.36175 0.343561 0.403851 5.36179 0.317167 0.424894 5.36409 0.264887 0.459308 5.36396 0.334102 0.411711 -5.41077 7.72379 -5.81306 -5.21454 18.5488 -4.54909 -0.0 0.0 -0.0 -2.30047 10.4559 -2.71282 -20.7289 -18.7985 87.4882 0.195128 -5.52124 0.00940893 -8.37762 -0.36938 1.00436 -2.14383 16.8187 -6.26332 -0.0 0.0 -0.0 11.719 13.9822 -23.5892 61.1616 -67.694 -28.105 0.187509 5.30692 -0.00869004 85.0493 4.43243 8.8684 -3.03631 -24.6972 7.41519 0.0 0.0 0.0 38.9575 7.684 -8.49046 -61.3168 -2.34384 8.6689 27.8095 16.464 -3.70648 -9.38917 0.0 0.0 -0.0 0.0 -0.0 38.8012 23.2194 -12.9142 -28.3898 -0.102366 -4.3112 7.00566 -2.90375 1.00976 30.8891 -0.0 -0.0 0.0 0.0 0.0 
1133.3204877 732.215 -1744.58337254 -15.7018957947 20.7604088152 8.37590790762 5.54821 0.434145 0.361185 5.54819 0.410282 0.388078 5.55097 0.363107 0.432538 5.55096 0.426861 0.369764 -8.40313 8.71743 -5.11202 -8.36584 19.868 -3.09464 -0.0 0.0 -0.0 -3.31234 10.2979 -4.49414 -19.859 -18.2735 89.5242 0.195899 -5.54293 0.00948329 -8.17254 -0.358595 0.980449 -1.95254 17.2114 -4.89861 -0.0 0.0 -0.0 11.8069 14.3779 -23.7773 61.936 -68.3009 -29.2767 0.19158 5.42144 -0.00907058 85.2237 4.45333 8.8764 -3.1924 -26.6669 7.18365 0.0 0.0 0.0 42.6416 7.51664 -10.1699 -60.118 -2.21274 8.53844 27.5064 16.6367 -3.67387 -9.73576 0.0 0.0 -0.0 0.0 -0.0 37.7302 23.1594 -11.997 -28.5857 -0.0956334 -4.34052 7.35016 -1.86 1.06014 30.8379 -0.0 -0.0 0.0 0.0 0.0 
1116.63103978 732.253 -1749.10780763 -15.8533435143 22.894961897 8.93327575402 5.62994 0.507159 0.366014 5.62988 0.482841 0.397544 5.63326 0.434753 0.44963 5.63333 0.500307 0.375326 -10.6575 9.5358 -4.38259 -10.7685 20.8989 -1.73961 -0.0 0.0 -0.0 -4.06244 10.877 -5.67817 -19.5326 -17.697 90.8502 0.203721 -5.76277 0.0102537 -8.05606 -0.352508 0.966852 -1.777 17.0221 -3.91764 -0.0 0.0 -0.0 11.8586 15.4828 -23.8571 62.1651 -68.5624 -30.5037 0.209671 5.92992 -0.0108598 85.1161 4.44044 8.87147 -3.29525 -27.8774 7.05642 0.0 0.0 0.0 45.5021 4.82118 -10.4231 -58.8084 -2.0727 8.39286 26.9172 17.661 -3.61825 -10.1221 0.0 0.0 -0.0 0.0 -0.0 36.27 22.1763 -11.5555 -28.6569 -0.0931617 -4.35117 8.38913 -0.970417 1.20797 31.0083 -0.0 -0.0 0.0 0.0 0.0 
1093.18172766 730.873 -1761.20252624 -16.7506604322 24.9742163726 9.76183824979 5.95987 0.550265 0.331621 5.95977 0.528048 0.365964 5.96322 0.485673 0.420579 5.96339 0.546 0.338597 -12.2938 10.0599 -3.92324 -12.522 21.5875 -0.817656 -0.0 0.0 -0.0 -4.92427 11.847 -6.94863 -20.3685 -17.1946 91.4659 0.203407 -5.75396 0.0102223 -7.94327 -0.34664 0.953673 -1.63908 16.8818 -3.14148 -0.0 0.0 -0.0 11.7854 16.0498 -23.6672 62.5884 -68.2704 -31.002 0.219105 6.19469 -0.0118561 85.1167 4.4405 8.8715 -3.38184 -28.8377 6.96899 0.0 0.0 0.0 47.8134 3.18417 -11.1284 -57.3881 -1.92465 8.23143 26.4534 18.4004 -3.57361 -10.3607 0.0 0.0 -0.0 0.0 -0.0 33.7901 21.4234 -10.1889 -28.4356 -0.100798 -4.31807 9.52628 -0.222549 1.36858 31.142 -0.0 -0.0 0.0 0.0 0.0 
1062.80767228 722.622 -1778.17071579 -16.9015027748 25.452994343 9.59271867307 6.33015 0.565549 0.234918 6.33001 0.549455 0.27043 6.33274 0.519322 0.324559 6.33304 0.564062 0.238467 -13.7347 11.7416 -1.28941 -14.1444 23.1733 2.53997 -0.0 0.0 -0.0 -4.94775 14.3919 -6.37318 -21.9737 -11.437 91.0141 0.194738 -5.51028 0.00937145 -8.58343 -0.380289 1.02832 -1.29561 16.663 -1.14381 -0.0 0.0 -0.0 12.1284 17.9627 -24.3583 63.7964 -68.1693 -33.4846 0.209198 5.91663 -0.0108111 85.1178 4.44064 8.87155 -3.57601 -29.196 7.80716 0.0 0.0 0.0 53.4236 -1.44534 -9.8302 -55.5648 -1.74057 8.01899 25.7371 19.2369 -3.50029 -10.927 0.0 0.0 -0.0 0.0 -0.0 29.8402 17.2929 -8.07923 -25.98 -0.176933 -3.94892 16.3249 0.982185 2.28971 30.0092 -0.0 -0.0 0.0 0.0 0.0 
1036.38942011 714.406 -1782.49318483 -18.0434075304 25.3907663946 10.5769538163 6.69144 0.330191 -0.264774 6.69141 0.34637 -0.243227 6.68999 0.367881 -0.209273 6.69009 0.330213 -0.264746 -13.295 12.4929 0.589423 -13.6898 23.4294 4.46814 -0.0 0.0 -0.0 -5.47536 19.0038 -6.03469 -24.6938 -8.03383 90.4248 0.200149 -5.6624 0.00989823 -10.6929 -0.497053 1.27158 -0.98199 13.5446 -0.589781 -0.0 0.0 -0.0 12.1257 18.4482 -24.324 65.8428 -68.2793 -33.5168 0.214693 6.07089 -0.0113848 85.2628 4.45802 8.87818 -4.07706 -29.3913 10.404 0.0 0.0 0.0 54.9712 -4.75455 -8.71803 -54.4249 -1.62899 7.88329 25.4017 19.6851 -3.4665 -11.2118 0.0 0.0 -0.0 0.0 -0.0 28.099 14.2189 -6.30949 -23.545 -0.236729 -3.58005 22.4381 3.29636 3.07671 29.617 -0.0 -0.0 0.0 0.0 0.0 
1029.54698524 714.406 -1774.84730164 -18.2396471124 26.6184490907 11.0245087391 6.69144 0.330191 -0.264774 6.69141 0.34637 -0.243227 6.68999 0.367881 -0.209273 6.69009 0.330213 -0.264746 -13.295 12.4929 0.589423 -13.6898 23.4294 4.46814 -0.0 0.0 -0.0 -5.47536 19.0038 -6.03469 -24.6938 -8.03383 90.4248 0.200149 -5.6624 0.00989823 -10.6929 -0.497053 1.27158 -0.98199 13.5446 -0.589781 -0.0 0.0 -0.0 12.1257 18.4482 -24.324 65.8428 -68.2793 -33.5168 0.214693 6.07089 -0.0113848 85.2628 4.45802 8.87818 -4.07706 -29.3913 10.404 0.0 0.0 0.0 54.9712 -4.75455 -8.71803 -54.4249 -1.62899 7.88329 25.4017 19.6851 -3.4665 -11.2118 0.0 0.0 -0.0 0.0 -0.0 28.099 14.2189 -6.30949 -23.545 -0.236729 -3.58005 22.4381 3.29636 3.07671 29.617 -0.0 -0.0 0.0 0.0 0.0 
1028.15695196 714.406 -1773.25088182 -18.2817308284 26.8715441057 11.1180236118 6.69144 0.330191 -0.264774 6.69141 0.34637 -0.243227 6.68999 0.367881 -0.209273 6.69009 0.330213 -0.264746 -13.295 12.4929 0.589423 -13.6898 23.4294 4.46814 -0.0 0.0 -0.0 -5.47536 19.0038 -6.03469 -24.6938 -8.03383 90.4248 0.200149 -5.6624 0.00989823 -10.6929 -0.497053 1.27158 -0.98199 13.5446 -0.589781 -0.0 0.0 -0.0 12.1257 18.4482 -24.324 65.8428 -68.2793 -33.5168 0.214693 6.07089 -0.0113848 85.2628 4.45802 8.87818 -4.07706 -29.3913 10.404 0.0 0.0 0.0 54.9712 -4.75455 -8.71803 -54.4249 -1.62899 7.88329 25.4017 19.6851 -3.4665 -11.2118 0.0 0.0 -0.0 0.0 -0.0 28.099 14.2189 -6.30949 -23.545 -0.236729 -3.58005 22.4381 3.29636 3.07671 29.617 -0.0 -0.0 0.0 0.0 0.0 
1024.69697609 714.406 -1769.2110063 -18.3899574938 27.5072476119 11.3548741019 6.69144 0.330191 -0.264774 6.69141 0.34637 -0.243227 6.68999 0.367881 -0.209273 6.69009 0.330213 -0.264746 -13.295 12.4929 0.589423 -13.6898 23.4294 4.46814 -0.0 0.0 -0.0 -5.47536 19.0038 -6.03469 -24.6938 -8.03383 90.4248 0.200149 -5.6624 0.00989823 -10.6929 -0.497053 1.27158 -0.98199 13.5446 -0.589781 -0.0 0.0 -0.0 12.1257 18.4482 -24.324 65.8428 -68.2793 -33.5168 0.214693 6.07089 -0.0113848 85.2628 4.45802 8.87818 -4.07706 -29.3913 10.404 0.0 0.0 0.0 54.9712 -4.75455 -8.71803 -54.4249 -1.62899 7.88329 25.4017 19.6851 -3.4665 -11.2118 0.0 0.0 -0.0 0.0 -0.0 28.099 14.2189 -6.30949 -23.545 -0.236729 -3.58005 22.4381 3.29636 3.07671 29.617 -0.0 -0.0 0.0 0.0 0.0 
1020.06546914 714.406 -1763.64975755 -18.54303822 28.3715619534 11.6815844414 6.69144 0.330191 -0.264774 6.69141 0.34637 -0.243227 6.68999 0.367881 -0.209273 6.69009 0.330213 -0.264746 -13.295 12.4929 0.589423 -13.6898 23.4294 4.46814 -0.0 0.0 -0.0 -5.47536 19.0038 -6.03469 -24.6938 -8.03383 90.4248 0.200149 -5.6624 0.00989823 -10.6929 -0.497053 1.27158 -0.98199 13.5446 -0.589781 -0.0 0.0 -0.0 12.1257 18.4482 -24.324 65.8428 -68.2793 -33.5168 0.214693 6.07089 -0.0113848 85.2628 4.45802 8.87818 -4.07706 -29.3913 10.404 0.0 0.0 0.0 54.9712 -4.75455 -8.71803 -54.4249 -1.62899 7.88329 25.4017 19.6851 -3.4665 -11.2118 0.0 0.0 -0.0 0.0 -0.0 28.099 14.2189 -6.30949 -23.545 -0.236729 -3.58005 22.4381 3.29636 3.07671 29.617 -0.0 -0.0 0.0 0.0 0.0 
1017.12057642 714.406 -1760.01806756 -18.645599451 28.929528683 11.8954888226 6.69144 0.330191 -0.264774 6.69141 0.34637 -0.243227 6.68999 0.367881 -0.209273 6.69009 0.330213 -0.264746 -13.295 12.4929 0.589423 -13.6898 23.4294 4.46814 -0.0 0.0 -0.0 -5.47536 19.0038 -6.03469 -24.6938 -8.03383 90.4248 0.200149 -5.6624 0.00989823 -10.6929 -0.497053 1.27158 -0.98199 13.5446 -0.589781 -0.0 0.0 -0.0 12.1257 18.4482 -24.324 65.8428 -68.2793 -33.5168 0.214693 6.07089 -0.0113848 85.2628 4.45802 8.87818 -4.07706 -29.3913 10.404 0.0 0.0 0.0 54.9712 -4.75455 -8.71803 -54.4249 -1.62899 7.88329 25.4017 19.6851 -3.4665 -11.2118 0.0 0.0 -0.0 0.0 -0.0 28.099 14.2189 -6.30949 -23.545 -0.236729 -3.58005 22.4381 3.29636 3.07671 29.617 -0.0 -0.0 0.0 0.0 0.0 
1013.50580982 714.406 -1755.45365019 -18.7774502366 29.623868158 12.1651017026 6.69144 0.330191 -0.264774 6.69141 0.34637 -0.243227 6.68999 0.367881 -0.209273 6.69009 0.330213 -0.264746 -13.295 12.4929 0.589423 -13.6898 23.4294 4.46814 -0.0 0.0 -0.0 -5.47536 19.0038 -6.03469 -24.6938 -8.03383 90.4248 0.200149 -5.6624 0.00989823 -10.6929 -0.497053 1.27158 -0.98199 13.5446 -0.589781 -0.0 0.0 -0.0 12.1257 18.4482 -24.324 65.8428 -68.2793 -33.5168 0.214693 6.07089 -0.0113848 85.2628 4.45802 8.87818 -4.07706 -29.3913 10.404 0.0 0.0 0.0 54.9712 -4.75455 -8.71803 -54.4249 -1.62899 7.88329 25.4017 19.6851 -3.4665 -11.2118 0.0 0.0 -0.0 0.0 -0.0 28.099 14.2189 -6.30949 -23.545 -0.236729 -3.58005 22.4381 3.29636 3.07671 29.617 -0.0 -0.0 0.0 0.0 0.0 
1008.34386915 714.406 -1748.72079597 -18.9780379716 30.6346130172 12.5647001607 6.69144 0.330191 -0.264774 6.69141 0.34637 -0.243227 6.68999 0.367881 -0.209273 6.69009 0.330213 -0.264746 -13.295 12.4929 0.589423 -13.6898 23.4294 4.46814 -0.0 0.0 -0.0 -5.47536 19.0038 -6.03469 -24.6938 -8.03383 90.4248 0.200149 -5.6624 0.00989823 -10.6929 -0.497053 1.27158 -0.98199 13.5446 -0.589781 -0.0 0.0 -0.0 12.1257 18.4482 -24.324 65.8428 -68.2793 -33.5168 0.214693 6.07089 -0.0113848 85.2628 4.45802 8.87818 -4.07706 -29.3913 10.404 0.0 0.0 0.0 54.9712 -4.75455 -8.71803 -54.4249 -1.62899 7.88329 25.4017 19.6851 -3.4665 -11.2118 0.0 0.0 -0.0 0.0 -0.0 28.099 14.2189 -6.30949 -23.545 -0.236729 -3.58005 22.4381 3.29636 3.07671 29.617 -0.0 -0.0 0.0 0.0 0.0 
